<svg  viewBox="0 0 63 64" fill="none" xmlns="http://www.w3.org/2000/svg">
<path fill-rule="evenodd" clip-rule="evenodd" d="M21.8537 3.12195C21.8537 1.39776 20.4559 0 18.7317 0C17.0075 0 15.6098 1.39776 15.6098 3.12195V4.70169C14.0614 4.72592 12.6856 4.7813 11.4739 4.90789C9.22787 5.1426 7.19176 5.64917 5.381 6.90242C4.14555 7.75749 3.07456 8.82847 2.21949 10.0639C0.966247 11.8747 0.459679 13.9108 0.225002 16.1568C0.0188904 18.1292 0.0015329 20.5362 0.000128024 23.4146L2.97593e-06 23.8936C2.97593e-06 24.0028 2.97593e-06 24.1126 2.97593e-06 24.2231V42.3667C-9.06826e-05 46.5942 -0.000184036 50.0802 0.370735 52.8393C0.760198 55.7359 1.60928 58.294 3.65762 60.3423C5.70593 62.3906 8.26415 63.2398 11.1608 63.6291C13.9198 64.0003 17.4058 64 21.6332 64H40.8055C45.0329 64 48.5192 64.0003 51.2784 63.6291C54.1749 63.2398 56.733 62.3906 58.7813 60.3423C60.8297 58.294 61.6788 55.7359 62.0685 52.8393C62.4393 50.0802 62.439 46.5942 62.439 42.3667V24.2231C62.439 24.1276 62.439 24.0324 62.439 23.938V23.4146C62.4375 20.5362 62.4203 18.1292 62.2139 16.1568C61.9795 13.9108 61.4728 11.8747 60.2196 10.0639C59.3645 8.82847 58.2934 7.75749 57.058 6.90242C55.2473 5.64917 53.2112 5.1426 50.9652 4.90789C49.7533 4.7813 48.3778 4.72592 46.8293 4.70169V3.12195C46.8293 1.39776 45.4316 0 43.7073 0C41.9831 0 40.5854 1.39776 40.5854 3.12195V4.68293H21.8537V3.12195ZM56.1948 23.4146C56.1926 20.4909 56.173 18.4229 56.0041 16.8057C55.8224 15.0689 55.4967 14.2117 55.0853 13.6173C54.6579 12.9996 54.1225 12.4641 53.5046 12.0366C52.9102 11.6252 52.0529 11.2995 50.3162 11.118C49.3456 11.0166 48.2123 10.9689 46.8293 10.9466V12.4878C46.8293 14.212 45.4316 15.6098 43.7073 15.6098C41.9831 15.6098 40.5854 14.212 40.5854 12.4878V10.9268H21.8537V12.4878C21.8537 14.212 20.4559 15.6098 18.7317 15.6098C17.0075 15.6098 15.6098 14.212 15.6098 12.4878V10.9466C14.2266 10.9689 13.0935 11.0166 12.1228 11.118C10.386 11.2995 9.52879 11.6252 8.9344 12.0366C8.31669 12.4641 7.78119 12.9996 7.35367 13.6173C6.94229 14.2117 6.61657 15.0689 6.43509 16.8057C6.2661 18.4229 6.24643 20.4909 6.24419 23.4146H56.1948ZM6.24391 29.6585V42.1463C6.24391 46.6498 6.25056 49.713 6.55897 52.0073C6.85534 54.2114 7.37786 55.2323 8.07271 55.9273C8.76757 56.6222 9.78851 57.1448 11.9928 57.4411C14.2868 57.7495 17.3503 57.7561 21.8537 57.7561H40.5854C45.0888 57.7561 48.152 57.7495 50.4464 57.4411C52.6505 57.1448 53.6713 56.6222 54.3663 55.9273C55.0612 55.2323 55.5838 54.2114 55.8801 52.0073C56.1886 49.713 56.1951 46.6498 56.1951 42.1463V29.6585H6.24391Z" fill="black"/>
</svg>
