<svg viewBox="0 0 50 65" fill="none" xmlns="http://www.w3.org/2000/svg">
<path d="M13.0304 24.7884C13.0304 17.9902 18.5445 12.476 25.3428 12.476C32.141 12.476 37.6551 17.9902 37.6551 24.7884C37.6551 31.5867 32.141 37.1008 25.3428 37.1008C18.5445 37.1008 13.0304 31.5867 13.0304 24.7884Z" fill="oklch(26.2% 0.051 172.552)"/>
<path fill-rule="evenodd" clip-rule="evenodd" d="M25.3428 0.166626C18.7379 0.166626 12.5569 2.30762 8.00367 6.57529C3.41579 10.8775 0.720703 17.1104 0.720703 24.7883C0.720703 29.3877 2.66839 34.7435 5.12975 39.7784C7.64009 44.9087 10.8892 50.1111 13.8987 54.5291L14.0458 54.7484C15.8002 57.3252 17.341 59.5874 18.879 61.1657C20.593 62.923 22.6244 64.1666 25.3425 64.1666C28.0606 64.1666 30.092 62.923 31.806 61.1657C33.3439 59.5874 34.8848 57.3252 36.6392 54.7484L36.7863 54.5291C39.7959 50.1114 43.045 44.9093 45.5552 39.7784C48.0165 34.7432 49.9643 29.388 49.9643 24.7883C49.9643 17.1097 47.2693 10.8774 42.6813 6.57529C38.128 2.3077 31.9481 0.166626 25.3428 0.166626ZM6.87571 24.7884C6.87571 18.6163 9.0023 14.0775 12.2139 11.0681C15.4571 8.0268 20.0476 6.32148 25.3425 6.32148C30.6374 6.32148 35.2283 8.0268 38.4711 11.0681C41.6827 14.0777 43.8093 18.6167 43.8093 24.7884C43.8093 27.9192 42.4012 32.2129 40.0235 37.072C37.695 41.8359 34.6219 46.7731 31.6986 51.0663C29.7509 53.9258 28.513 55.7235 27.3992 56.8662C26.4182 57.8732 25.8785 58.0117 25.3418 58.0117C24.8051 58.0117 24.2656 57.8732 23.2844 56.8662C22.1707 55.7235 20.9328 53.9258 18.9851 51.0663C16.0621 46.7727 12.989 41.8357 10.6601 37.072C8.28245 32.2128 6.87438 27.9189 6.87438 24.7884H6.87571Z" fill="oklch(26.2% 0.051 172.552)"/>
</svg>
